# xmcd
#
# Track frame offsets: 
#        150
#        17874
#        37375
#        52001
#        67702
#        89815
#        109908
#        130908
#        144749
#        166246
#
# Disc length: 2455 seconds
#
# Revision: 3
# Processed by: cddbd v1.5.2PL0 Copyright (c) Steve Scherf et al.
# Submitted via: ExactAudioCopyFreeDBPlugin 1.0
#
DISCID=9409950a
DTITLE=Emmylou Harris, Linda Ronstadt, Dolly Parton - 1999 - Trio Cd 2
DYEAR=1999
DGENRE=Country
TTITLE0=Lover's Return
TTITLE1=High Sierra
TTITLE2=Do I Ever Cross Your Mind
TTITLE3=After The Gold Rush
TTITLE4=The Blue Train
TTITLE5=I Feel The Blues Movin' In
TTITLE6=You'll Never Be The Sun
TTITLE7=He Rode All The Way To Texas
TTITLE8=Feels Like Home
TTITLE9=When We're Gone, Long Gone
EXTD=0\n\n\n
EXTT0=
EXTT1=
EXTT2=
EXTT3=
EXTT4=
EXTT5=
EXTT6=
EXTT7=
EXTT8=
EXTT9=
PLAYORDER=
